<mxfile host="app.diagrams.net" modified="2024-05-13T14:59:30.808Z" agent="Mozilla/5.0 (Windows NT 10.0; Win64; x64) AppleWebKit/537.36 (KHTML, like Gecko) Chrome/124.0.0.0 Safari/537.36" etag="cTESL0NWDb6E_pjYh6r_" version="24.3.1" type="device">
  <diagram name="Sida-1" id="IHKp8R0fSz_p-DxhctY8">
    <mxGraphModel dx="1050" dy="565" grid="1" gridSize="10" guides="1" tooltips="1" connect="1" arrows="1" fold="1" page="1" pageScale="1" pageWidth="827" pageHeight="1169" background="#ffffff" math="0" shadow="0">
      <root>
        <mxCell id="0" />
        <mxCell id="1" parent="0" />
        <mxCell id="jYLa3bLy5tZr8qkd2U9y-2" value="&lt;font style=&quot;font-size: 20px;&quot;&gt;Type Checker&lt;/font&gt;" style="rounded=1;whiteSpace=wrap;html=1;" parent="1" vertex="1">
          <mxGeometry x="450" y="280" width="120" height="60" as="geometry" />
        </mxCell>
        <mxCell id="jYLa3bLy5tZr8qkd2U9y-5" value="&lt;font style=&quot;font-size: 20px;&quot;&gt;Parser&lt;/font&gt;" style="rounded=1;whiteSpace=wrap;html=1;" parent="1" vertex="1">
          <mxGeometry x="300" y="280" width="120" height="60" as="geometry" />
        </mxCell>
        <mxCell id="jYLa3bLy5tZr8qkd2U9y-28" style="edgeStyle=orthogonalEdgeStyle;rounded=0;orthogonalLoop=1;jettySize=auto;html=1;entryX=0.5;entryY=0;entryDx=0;entryDy=0;" parent="1" source="jYLa3bLy5tZr8qkd2U9y-6" target="jYLa3bLy5tZr8qkd2U9y-11" edge="1">
          <mxGeometry relative="1" as="geometry" />
        </mxCell>
        <mxCell id="jYLa3bLy5tZr8qkd2U9y-6" value="&lt;font style=&quot;font-size: 25px;&quot;&gt;Lexer&lt;/font&gt;" style="rounded=1;whiteSpace=wrap;html=1;arcSize=11;" parent="1" vertex="1">
          <mxGeometry x="150" y="280" width="120" height="60" as="geometry" />
        </mxCell>
        <mxCell id="lLBsYlsUsAYSD2ZafHI--1" value="" style="edgeStyle=orthogonalEdgeStyle;rounded=0;orthogonalLoop=1;jettySize=auto;html=1;" edge="1" parent="1" source="jYLa3bLy5tZr8qkd2U9y-7" target="jYLa3bLy5tZr8qkd2U9y-15">
          <mxGeometry relative="1" as="geometry">
            <Array as="points">
              <mxPoint x="665" y="260" />
              <mxPoint x="665" y="260" />
            </Array>
          </mxGeometry>
        </mxCell>
        <mxCell id="jYLa3bLy5tZr8qkd2U9y-7" value="&lt;font style=&quot;font-size: 20px;&quot;&gt;Code Generator&lt;/font&gt;" style="rounded=1;whiteSpace=wrap;html=1;" parent="1" vertex="1">
          <mxGeometry x="600" y="280" width="130" height="60" as="geometry" />
        </mxCell>
        <mxCell id="jYLa3bLy5tZr8qkd2U9y-11" value="&lt;font style=&quot;font-size: 20px;&quot;&gt;TokenStream&lt;/font&gt;" style="ellipse;whiteSpace=wrap;html=1;" parent="1" vertex="1">
          <mxGeometry x="132.5" y="380" width="155" height="80" as="geometry" />
        </mxCell>
        <mxCell id="jYLa3bLy5tZr8qkd2U9y-12" value="&lt;font style=&quot;font-size: 18px;&quot;&gt;AST&lt;/font&gt;&lt;div style=&quot;font-size: 18px;&quot;&gt;&lt;font style=&quot;font-size: 18px;&quot;&gt;(syntax tree)&lt;/font&gt;&lt;/div&gt;" style="ellipse;whiteSpace=wrap;html=1;spacingTop=-9;" parent="1" vertex="1">
          <mxGeometry x="440" y="380" width="140" height="90" as="geometry" />
        </mxCell>
        <mxCell id="jYLa3bLy5tZr8qkd2U9y-15" value="&lt;span style=&quot;font-size: 18px;&quot;&gt;Bytecode&lt;/span&gt;&lt;div&gt;&lt;span style=&quot;font-size: 18px;&quot;&gt;(output)&lt;/span&gt;&lt;/div&gt;" style="ellipse;whiteSpace=wrap;html=1;" parent="1" vertex="1">
          <mxGeometry x="595" y="160" width="140" height="80" as="geometry" />
        </mxCell>
        <mxCell id="jYLa3bLy5tZr8qkd2U9y-29" style="edgeStyle=orthogonalEdgeStyle;rounded=0;orthogonalLoop=1;jettySize=auto;html=1;entryX=0.5;entryY=0;entryDx=0;entryDy=0;" parent="1" source="jYLa3bLy5tZr8qkd2U9y-16" target="jYLa3bLy5tZr8qkd2U9y-6" edge="1">
          <mxGeometry relative="1" as="geometry" />
        </mxCell>
        <mxCell id="jYLa3bLy5tZr8qkd2U9y-16" value="&lt;span style=&quot;font-size: 18px;&quot;&gt;Source files&lt;/span&gt;&lt;div&gt;&lt;span style=&quot;font-size: 18px;&quot;&gt;(input)&lt;/span&gt;&lt;/div&gt;" style="ellipse;whiteSpace=wrap;html=1;" parent="1" vertex="1">
          <mxGeometry x="137.5" y="160" width="145" height="80" as="geometry" />
        </mxCell>
        <mxCell id="jYLa3bLy5tZr8qkd2U9y-32" value="" style="endArrow=classic;html=1;rounded=0;exitX=0.75;exitY=1;exitDx=0;exitDy=0;" parent="1" source="jYLa3bLy5tZr8qkd2U9y-5" target="jYLa3bLy5tZr8qkd2U9y-12" edge="1">
          <mxGeometry width="50" height="50" relative="1" as="geometry">
            <mxPoint x="335" y="420" as="sourcePoint" />
            <mxPoint x="385" y="370" as="targetPoint" />
          </mxGeometry>
        </mxCell>
        <mxCell id="jYLa3bLy5tZr8qkd2U9y-33" value="" style="endArrow=classic;startArrow=classic;html=1;rounded=0;entryX=0.5;entryY=1;entryDx=0;entryDy=0;exitX=0.5;exitY=0;exitDx=0;exitDy=0;" parent="1" source="jYLa3bLy5tZr8qkd2U9y-12" target="jYLa3bLy5tZr8qkd2U9y-2" edge="1">
          <mxGeometry width="50" height="50" relative="1" as="geometry">
            <mxPoint x="420" y="400" as="sourcePoint" />
            <mxPoint x="470" y="350" as="targetPoint" />
          </mxGeometry>
        </mxCell>
        <mxCell id="jYLa3bLy5tZr8qkd2U9y-34" value="" style="endArrow=classic;html=1;rounded=0;exitX=1;exitY=0;exitDx=0;exitDy=0;entryX=0.25;entryY=1;entryDx=0;entryDy=0;" parent="1" source="jYLa3bLy5tZr8qkd2U9y-11" target="jYLa3bLy5tZr8qkd2U9y-5" edge="1">
          <mxGeometry width="50" height="50" relative="1" as="geometry">
            <mxPoint x="310" y="430" as="sourcePoint" />
            <mxPoint x="360" y="380" as="targetPoint" />
          </mxGeometry>
        </mxCell>
        <mxCell id="jYLa3bLy5tZr8qkd2U9y-35" value="" style="endArrow=classic;html=1;rounded=0;entryX=0.33;entryY=1.017;entryDx=0;entryDy=0;entryPerimeter=0;" parent="1" source="jYLa3bLy5tZr8qkd2U9y-12" target="jYLa3bLy5tZr8qkd2U9y-7" edge="1">
          <mxGeometry width="50" height="50" relative="1" as="geometry">
            <mxPoint x="620" y="440" as="sourcePoint" />
            <mxPoint x="670" y="390" as="targetPoint" />
          </mxGeometry>
        </mxCell>
      </root>
    </mxGraphModel>
  </diagram>
</mxfile>
